<svg viewBox="0 0 1400 1000" xmlns="http://www.w3.org/2000/svg">
  <!-- Title -->
  <text x="700" y="30" text-anchor="middle" font-size="20" font-weight="bold" fill="#333">
    Dependable Call Exchange - Call Flow Sequence
  </text>
  
  <!-- Actors -->
  <g id="actors">
    <!-- Caller -->
    <rect x="50" y="70" width="100" height="40" rx="5" fill="#4A90E2" stroke="#2E5C8A" stroke-width="2"/>
    <text x="100" y="95" text-anchor="middle" fill="white" font-weight="bold">Caller</text>
    <line x1="100" y1="110" x2="100" y2="950" stroke="#999" stroke-width="1" stroke-dasharray="3,3"/>
    
    <!-- API Gateway -->
    <rect x="250" y="70" width="120" height="40" rx="5" fill="#7ED321" stroke="#5A9E18" stroke-width="2"/>
    <text x="310" y="95" text-anchor="middle" fill="white" font-weight="bold">API Gateway</text>
    <line x1="310" y1="110" x2="310" y2="950" stroke="#999" stroke-width="1" stroke-dasharray="3,3"/>
    
    <!-- Call Service -->
    <rect x="470" y="70" width="120" height="40" rx="5" fill="#FF9500" stroke="#CC7700" stroke-width="2"/>
    <text x="530" y="95" text-anchor="middle" fill="white" font-weight="bold">Call Service</text>
    <line x1="530" y1="110" x2="530" y2="950" stroke="#999" stroke-width="1" stroke-dasharray="3,3"/>
    
    <!-- Compliance -->
    <rect x="690" y="70" width="120" height="40" rx="5" fill="#FF9500" stroke="#CC7700" stroke-width="2"/>
    <text x="750" y="95" text-anchor="middle" fill="white" font-weight="bold">Compliance</text>
    <line x1="750" y1="110" x2="750" y2="950" stroke="#999" stroke-width="1" stroke-dasharray="3,3"/>
    
    <!-- Bidding -->
    <rect x="910" y="70" width="120" height="40" rx="5" fill="#FF9500" stroke="#CC7700" stroke-width="2"/>
    <text x="970" y="95" text-anchor="middle" fill="white" font-weight="bold">Bidding</text>
    <line x1="970" y1="110" x2="970" y2="950" stroke="#999" stroke-width="1" stroke-dasharray="3,3"/>
    
    <!-- Routing -->
    <rect x="1130" y="70" width="120" height="40" rx="5" fill="#FF9500" stroke="#CC7700" stroke-width="2"/>
    <text x="1190" y="95" text-anchor="middle" fill="white" font-weight="bold">Routing</text>
    <line x1="1190" y1="110" x2="1190" y2="950" stroke="#999" stroke-width="1" stroke-dasharray="3,3"/>
  </g>
  
  <!-- Sequence Flow -->
  <defs>
    <marker id="arrow" markerWidth="10" markerHeight="7" refX="9" refY="3.5" orient="auto">
      <polygon points="0 0, 10 3.5, 0 7" fill="#666"/>
    </marker>
  </defs>
  
  <!-- 1. Incoming Call -->
  <g>
    <line x1="100" y1="140" x2="300" y2="140" stroke="#2E5C8A" stroke-width="2" marker-end="url(#arrow)"/>
    <text x="200" y="135" text-anchor="middle" font-size="12" fill="#333">1. Incoming Call</text>
    <rect x="95" y="145" width="10" height="20" fill="#2E5C8A"/>
  </g>
  
  <!-- 2. Authenticate -->
  <g>
    <line x1="310" y1="170" x2="520" y2="170" stroke="#5A9E18" stroke-width="2" marker-end="url(#arrow)"/>
    <text x="415" y="165" text-anchor="middle" font-size="12" fill="#333">2. Authenticate</text>
    <rect x="305" y="175" width="10" height="20" fill="#5A9E18"/>
  </g>
  
  <!-- 3. Create Call Record -->
  <g>
    <rect x="525" y="195" width="10" height="30" fill="#FF9500"/>
    <text x="540" y="215" font-size="11" fill="#333">Create Call</text>
  </g>
  
  <!-- 4. Compliance Check -->
  <g>
    <line x1="530" y1="240" x2="740" y2="240" stroke="#CC7700" stroke-width="2" marker-end="url(#arrow)"/>
    <text x="635" y="235" text-anchor="middle" font-size="12" fill="#333">4. Check Compliance</text>
  </g>
  
  <!-- 5. DNC Check -->
  <g>
    <rect x="745" y="250" width="10" height="30" fill="#FF9500"/>
    <text x="760" y="270" font-size="11" fill="#333">DNC Check</text>
  </g>
  
  <!-- 6. TCPA Check -->
  <g>
    <rect x="745" y="290" width="10" height="30" fill="#FF9500"/>
    <text x="760" y="310" font-size="11" fill="#333">TCPA Check</text>
  </g>
  
  <!-- 7. Compliance Result -->
  <g>
    <line x1="740" y1="340" x2="540" y2="340" stroke="#CC7700" stroke-width="2" stroke-dasharray="5,2" marker-end="url(#arrow)"/>
    <text x="640" y="335" text-anchor="middle" font-size="12" fill="#333">7. Compliance OK</text>
  </g>
  
  <!-- 8. Start Auction -->
  <g>
    <line x1="530" y1="370" x2="960" y2="370" stroke="#CC7700" stroke-width="2" marker-end="url(#arrow)"/>
    <text x="745" y="365" text-anchor="middle" font-size="12" fill="#333">8. Start Auction</text>
  </g>
  
  <!-- 9. Find Matching Bids -->
  <g>
    <rect x="965" y="380" width="10" height="30" fill="#FF9500"/>
    <text x="980" y="400" font-size="11" fill="#333">Find Bids</text>
  </g>
  
  <!-- 10. Execute Auction -->
  <g>
    <rect x="965" y="420" width="10" height="40" fill="#FF9500"/>
    <text x="980" y="445" font-size="11" fill="#333">Run Auction</text>
  </g>
  
  <!-- 11. Select Winner -->
  <g>
    <rect x="965" y="470" width="10" height="30" fill="#FF9500"/>
    <text x="980" y="490" font-size="11" fill="#333">Select Winner</text>
  </g>
  
  <!-- 12. Auction Result -->
  <g>
    <line x1="960" y1="520" x2="540" y2="520" stroke="#CC7700" stroke-width="2" stroke-dasharray="5,2" marker-end="url(#arrow)"/>
    <text x="750" y="515" text-anchor="middle" font-size="12" fill="#333">12. Winner: Buyer X</text>
  </g>
  
  <!-- 13. Route Call -->
  <g>
    <line x1="530" y1="550" x2="1180" y2="550" stroke="#CC7700" stroke-width="2" marker-end="url(#arrow)"/>
    <text x="855" y="545" text-anchor="middle" font-size="12" fill="#333">13. Route to Winner</text>
  </g>
  
  <!-- 14. Connect Call -->
  <g>
    <rect x="1185" y="560" width="10" height="30" fill="#FF9500"/>
    <text x="1200" y="580" font-size="11" fill="#333">Connect</text>
  </g>
  
  <!-- 15. Call Connected -->
  <g>
    <line x1="1180" y1="610" x2="320" y2="610" stroke="#CC7700" stroke-width="2" stroke-dasharray="5,2" marker-end="url(#arrow)"/>
    <text x="750" y="605" text-anchor="middle" font-size="12" fill="#333">15. Call Connected</text>
  </g>
  
  <!-- 16. Notify Caller -->
  <g>
    <line x1="300" y1="640" x2="110" y2="640" stroke="#5A9E18" stroke-width="2" stroke-dasharray="5,2" marker-end="url(#arrow)"/>
    <text x="205" y="635" text-anchor="middle" font-size="12" fill="#333">16. Connected to Buyer</text>
  </g>
  
  <!-- Call in Progress -->
  <g>
    <rect x="80" y="670" width="1120" height="100" rx="5" fill="#E6F3FF" stroke="#4A90E2" stroke-width="2" stroke-dasharray="3,3"/>
    <text x="640" y="720" text-anchor="middle" font-size="14" font-weight="bold" fill="#2E5C8A">Call in Progress</text>
    <text x="640" y="745" text-anchor="middle" font-size="12" fill="#2E5C8A">(Real-time monitoring, quality tracking, duration tracking)</text>
  </g>
  
  <!-- 17. Call Ended -->
  <g>
    <line x1="100" y1="800" x2="300" y2="800" stroke="#2E5C8A" stroke-width="2" marker-end="url(#arrow)"/>
    <text x="200" y="795" text-anchor="middle" font-size="12" fill="#333">17. Call Ended</text>
    <rect x="95" y="805" width="10" height="20" fill="#2E5C8A"/>
  </g>
  
  <!-- 18. Update Status -->
  <g>
    <line x1="310" y1="830" x2="520" y2="830" stroke="#5A9E18" stroke-width="2" marker-end="url(#arrow)"/>
    <text x="415" y="825" text-anchor="middle" font-size="12" fill="#333">18. Update Status</text>
  </g>
  
  <!-- 19. Calculate Billing -->
  <g>
    <rect x="525" y="850" width="10" height="40" fill="#FF9500"/>
    <text x="540" y="875" font-size="11" fill="#333">Calculate Cost</text>
  </g>
  
  <!-- 20. Process Payment -->
  <g>
    <rect x="525" y="900" width="10" height="30" fill="#FF9500"/>
    <text x="540" y="920" font-size="11" fill="#333">Bill Buyer</text>
  </g>
  
  <!-- Legend -->
  <g id="legend" transform="translate(50, 970)">
    <text x="0" y="0" font-weight="bold" font-size="12" fill="#333">Legend:</text>
    <line x1="80" y1="-5" x2="120" y2="-5" stroke="#666" stroke-width="2" marker-end="url(#arrow)"/>
    <text x="130" y="0" font-size="11" fill="#333">Synchronous Call</text>
    
    <line x1="250" y1="-5" x2="290" y2="-5" stroke="#666" stroke-width="2" stroke-dasharray="5,2" marker-end="url(#arrow)"/>
    <text x="300" y="0" font-size="11" fill="#333">Response</text>
    
    <rect x="420" y="-10" width="10" height="10" fill="#666"/>
    <text x="440" y="0" font-size="11" fill="#333">Processing</text>
  </g>
</svg>
